# xmcd
#
# Track frame offsets:
#	150
#	8339
#	21475
#	36577
#	49376
#	62515
#	69375
#	82731
#	100356
#	119261
#	138224
#	152784
#	165879
#	176429
#	190702
#	205065
#	215024
#	230648
#	239782
#
# Disc length: 3499 seconds
#
# Revision: 0
# Processed by: cddbd v1.5.1PL0 Copyright (c) Steve Scherf et al.
# Submitted via: audiograbber 1.83.01
#
DISCID=000da913
DTITLE=Jukebox - Let`s Have A Party
DYEAR=2002
DGENRE=Oldies
TTITLE0=Let`s Have A Party
TTITLE1=Pretty Woman
TTITLE2=Moviestar
TTITLE3=Proud Mary
TTITLE4=Hey Baby
TTITLE5=Stay
TTITLE6=Johnny B. Goode
TTITLE7=Supergirl
TTITLE8=I feel lonenly
TTITLE9=Angel
TTITLE10=Willenlos
TTITLE11=Black is Black
TTITLE12=Surfin USA
TTITLE13=In the Ghetto
TTITLE14=Runaround Sue
TTITLE15=Can't buy me love
TTITLE16=Born to be wild
TTITLE17=All shook up
TTITLE18=Ich war noch niemal in N.Y.
EXTD=Mike Maquardt and the amazing Jukebox \n:-)
EXTT0=
EXTT1=
EXTT2=
EXTT3=
EXTT4=
EXTT5=
EXTT6=
EXTT7=
EXTT8=
EXTT9=
EXTT10=
EXTT11=
EXTT12=
EXTT13=
EXTT14=
EXTT15=
EXTT16=
EXTT17=
EXTT18=
PLAYORDER=
